<svg width="24" height="24" viewBox="0 0 24 24" fill="none" xmlns="http://www.w3.org/2000/svg">
<circle cx="12" cy="12" r="12" fill="#FFDA44"/>
<path d="M0.746426 7.82609C0.264 9.12608 0 10.5322 0 12C0 13.4678 0.264 14.8739 0.746426 16.1739L12 17.2174L23.2536 16.1739C23.736 14.8739 24 13.4678 24 12C24 10.5322 23.736 9.12608 23.2536 7.82609L12 6.78261L0.746426 7.82609Z" fill="#FFDA44"/>
<path d="M23.2533 7.82612C21.5577 3.25651 17.1592 0 11.9997 0C6.84011 0 2.44161 3.25651 0.746094 7.82612H23.2533Z" fill="#D80027"/>
<path d="M0.746094 16.1738C2.44161 20.7434 6.84011 24 11.9997 24C17.1592 24 21.5577 20.7434 23.2533 16.1738H0.746094Z" fill="#D80027"/>
</svg>
