<svg width="24" height="24" viewBox="0 0 24 24" fill="none" xmlns="http://www.w3.org/2000/svg">
<circle cx="12" cy="12" r="12" fill="#F0F0F0"/>
<mask id="mask0_520_15439" style="mask-type:luminance" maskUnits="userSpaceOnUse" x="0" y="0" width="24" height="24">
<circle cx="12" cy="12" r="12" fill="white"/>
</mask>
<g mask="url(#mask0_520_15439)">
<path d="M12 8.86957H23.5869C23.2863 7.75278 22.8279 6.70096 22.2392 5.73914H12V8.86957Z" fill="#338AF3"/>
<path d="M4.53076 21.3912H19.4699C20.5651 20.5192 21.5046 19.4589 22.2392 18.2607H1.76172C2.49603 19.4589 3.43558 20.5192 4.53076 21.3912Z" fill="#338AF3"/>
<path d="M4.17424 2.90283C3.23107 3.71626 2.41466 4.67183 1.76172 5.73918H4.17424V2.90283Z" fill="#338AF3"/>
<path d="M12 12C12 10.7785 12 9.75463 12 8.86957H7.30435V12H4.17391V8.86957H0.413115C0.143766 9.86814 0 10.9166 0 12C0 13.0835 0.143766 14.1319 0.413115 15.1305H23.5869C23.8562 14.1319 24 13.0835 24 12H12Z" fill="#338AF3"/>
<path d="M12 0C10.3339 0 8.74695 0.340219 7.30435 0.953812V5.73913H12C12 4.6463 12 3.71672 12 2.60869H19.4699C17.4196 0.975703 14.8247 0 12 0Z" fill="#338AF3"/>
</g>
</svg>
