<svg width="24" height="24" viewBox="0 0 24 24" fill="none" xmlns="http://www.w3.org/2000/svg">
<path d="M19.881 10.6658C19.6118 9.11588 18.8975 7.67928 17.8261 6.5335C16.7548 5.38771 15.3734 4.58293 13.8527 4.21861C12.332 3.85428 10.7385 3.94635 9.26922 4.48346C7.79991 5.02057 6.51912 5.97918 5.5851 7.24085C4.65108 8.50251 4.10475 10.012 4.01361 11.5827C3.92247 13.1534 4.29051 14.7166 5.07226 16.0792C5.85402 17.4417 7.01523 18.5438 8.41243 19.2495C9.80963 19.9551 11.3816 20.2332 12.9341 20.0496M11.9998 7.57905V12.0526L13.3332 13.3947M20 14.7368H17.7777C17.4241 14.7368 17.0849 14.8782 16.8349 15.1298C16.5848 15.3815 16.4443 15.7229 16.4443 16.0788C16.4443 16.4348 16.5848 16.7761 16.8349 17.0278C17.0849 17.2795 17.4241 17.4209 17.7777 17.4209H18.6666C19.0203 17.4209 19.3594 17.5623 19.6095 17.814C19.8595 18.0657 20 18.407 20 18.763C20 19.1189 19.8595 19.4603 19.6095 19.712C19.3594 19.9636 19.0203 20.105 18.6666 20.105H16.4443M18.2222 20.105V20.9998M18.2222 13.842V14.7368" stroke="#001D47" stroke-opacity="0.52" stroke-width="2" stroke-linecap="round" stroke-linejoin="round"/>
</svg>
