<svg width="24" height="24" viewBox="0 0 24 24" fill="none" xmlns="http://www.w3.org/2000/svg">
<path d="M21.9999 12.2226C21.9999 11.3999 21.9318 10.8 21.7854 10.1772H12.2039V13.8889H17.8273C17.7146 14.8107 17.1028 16.1998 15.7419 17.1334L15.7228 17.257L18.7519 19.557L18.9609 19.577C20.89 17.8334 21.9999 15.2662 21.9999 12.2226Z" fill="#4285F4"/>
<path d="M12.2045 22C14.959 22 17.2716 21.111 18.9616 19.5774L15.7417 17.1338C14.8799 17.7229 13.7235 18.1338 12.2045 18.1338C10.924 18.1339 9.67565 17.7331 8.63451 16.9878C7.59338 16.2424 6.81171 15.1897 6.39919 13.9775L6.2792 13.9875L3.12929 16.3766L3.08838 16.4893C4.76651 19.7555 8.21369 22 12.2045 22Z" fill="#34A853"/>
<path d="M6.39988 13.9769C6.17628 13.3415 6.06045 12.6733 6.05716 11.9997C6.05716 11.3106 6.18261 10.6443 6.38533 10.0225L6.37988 9.88887L3.19088 7.46167L3.08633 7.51076C2.37344 8.89978 2.00108 10.4384 2 11.9997C2 13.6106 2.39635 15.1332 3.08815 16.4887L6.39988 13.9769Z" fill="#FBBC05"/>
<path d="M12.2045 5.86624C14.1208 5.86624 15.4126 6.67713 16.1498 7.35529L19.0288 4.59992C17.2607 2.98906 14.959 2 12.2045 2C8.21278 2 4.76651 4.24448 3.08838 7.51074L6.38829 10.0225C6.80435 8.81039 7.58842 7.75841 8.63107 7.01333C9.67373 6.26825 10.923 5.86724 12.2045 5.86624Z" fill="#EB4335"/>
</svg>
