<svg width="24" height="24" viewBox="0 0 24 24" fill="none" xmlns="http://www.w3.org/2000/svg">
<path d="M21 21V10.0698C21 9.77545 20.8703 9.49603 20.6455 9.30602L12.6455 2.54546C12.2728 2.23052 11.7272 2.23052 11.3545 2.54546L3.35454 9.30602C3.1297 9.49603 3 9.77544 3 10.0698V21C3 21.5523 3.44772 22 4 22H8.75C9.30228 22 9.75 21.5523 9.75 21V16.2394C9.75 15.6872 10.1977 15.2394 10.75 15.2394H13.25C13.8023 15.2394 14.25 15.6872 14.25 16.2394V21C14.25 21.5523 14.6977 22 15.25 22H20C20.5523 22 21 21.5523 21 21Z" stroke="#001D47" stroke-opacity="0.52" stroke-width="2" stroke-linejoin="round"/>
</svg>
