<svg width="24" height="24" viewBox="0 0 24 24" fill="none" xmlns="http://www.w3.org/2000/svg">
<path d="M5 10V9.75C5 6.02208 8.24594 3 12.25 3C16.2541 3 19.5 6.02208 19.5 9.75V10M12 19V19.5C12 20.3284 12.6716 21 13.5 21H15.25C17.7353 21 19.75 18.9853 19.75 16.5M4.5 10H6V16.5H4.5C3.67157 16.5 3 15.8284 3 15V11.5C3 10.6716 3.67157 10 4.5 10ZM18.5 10H20C20.8284 10 21.5 10.6716 21.5 11.5V15C21.5 15.8284 20.8284 16.5 20 16.5H18.5V10Z" stroke="#001D47" stroke-opacity="0.52" stroke-width="2" stroke-linecap="round" stroke-linejoin="round"/>
</svg>
