<svg width="24" height="24" viewBox="0 0 24 24" fill="none" xmlns="http://www.w3.org/2000/svg">
<path d="M20.003 7.15814C19.3166 7.5784 18.748 8.16594 18.3505 8.86579C17.9529 9.56563 17.7395 10.3549 17.73 11.1597C17.7328 12.0655 18.0011 12.9506 18.5019 13.7054C19.0027 14.4602 19.7139 15.0515 20.5474 15.4061C20.2188 16.4664 19.7324 17.4712 19.1047 18.3868C18.2064 19.6798 17.2672 20.9727 15.8382 20.9727C14.4091 20.9727 14.0416 20.1425 12.3947 20.1425C10.7887 20.1425 10.217 21 8.91039 21C7.60377 21 6.69197 19.8022 5.64391 18.3323C4.2595 16.2732 3.49864 13.8583 3.45264 11.3774C3.45264 7.29427 6.10673 5.13028 8.71984 5.13028C10.1082 5.13028 11.2651 6.04208 12.1362 6.04208C12.9664 6.04208 14.2594 5.07572 15.8382 5.07572C16.6499 5.05478 17.4543 5.23375 18.1806 5.59689C18.9069 5.96003 19.5327 6.49619 20.003 7.15814ZM15.0897 3.34726C15.7856 2.52858 16.1796 1.49589 16.2057 0.421702C16.2069 0.280092 16.1932 0.13875 16.1649 0C14.9694 0.116777 13.864 0.686551 13.0752 1.59245C12.3726 2.37851 11.9638 3.38362 11.9183 4.43697C11.9188 4.56507 11.9325 4.69278 11.9592 4.81808C12.0534 4.8359 12.1491 4.84503 12.245 4.84536C12.796 4.80152 13.3322 4.64611 13.8212 4.38858C14.3103 4.13104 14.7418 3.77676 15.0897 3.34726Z" fill="black"/>
</svg>
