<svg width="24" height="24" viewBox="0 0 24 24" fill="none" xmlns="http://www.w3.org/2000/svg">
<path d="M5.46215 19.567C6.93958 17.6603 9.22283 16.4444 12 16.4444C14.7772 16.4444 17.0604 17.6603 18.5378 19.567M5.46215 19.567C7.2152 21.083 9.50051 22 12 22C14.4995 22 16.7848 21.083 18.5378 19.567M5.46215 19.567C3.3417 17.7333 2 15.0234 2 12C2 6.47715 6.47715 2 12 2C17.5228 2 22 6.47715 22 12C22 15.0234 20.6583 17.7333 18.5378 19.567M15.3333 9.77778C15.3333 11.6187 13.8409 13.1111 12 13.1111C10.1591 13.1111 8.66667 11.6187 8.66667 9.77778C8.66667 7.93683 10.1591 6.44444 12 6.44444C13.8409 6.44444 15.3333 7.93683 15.3333 9.77778Z" stroke="#001D47" stroke-opacity="0.52" stroke-width="2" stroke-linejoin="round"/>
</svg>
