<svg width="24" height="24" viewBox="0 0 24 24" fill="none" xmlns="http://www.w3.org/2000/svg">
<path d="M3.10677 7.5V4.125C3.10677 3.50368 3.60423 3 4.21788 3H15.329C15.9426 3 16.4401 3.50368 16.4401 4.125V5.25M3.10677 7.5H2V19.875C2 20.4963 2.49746 21 3.11111 21H20.8889C21.5025 21 22 20.4963 22 19.875V10.875H20.8845M3.10677 7.5H8.20643C8.50111 7.5 8.78373 7.61853 8.9921 7.82951L11.6746 10.5455C11.8829 10.7565 12.1656 10.875 12.4602 10.875H16.4401M16.4401 10.875V5.25M16.4401 10.875H20.8845M16.4401 5.25H19.7734C20.3871 5.25 20.8845 5.75368 20.8845 6.375V10.875" stroke="#001D47" stroke-opacity="0.52" stroke-width="2" stroke-linejoin="round"/>
</svg>
